HIERARCHY
ROOT hip
{
	OFFSET 0.000000 0.000000 0.000000 
	CHANNELS 6 Xposition Yposition Zposition Xrotation Zrotation Yrotation
	JOINT abdomen
	{
		OFFSET 0.000000 3.402643 0.000000 
		CHANNELS 3 Xrotation Zrotation Yrotation
		JOINT chest
		{
			OFFSET 0.000000 8.438565 -0.680529 
			CHANNELS 3 Xrotation Zrotation Yrotation
			JOINT neck
			{
				OFFSET 0.000000 10.207942 -0.272212 
				CHANNELS 3 Xrotation Zrotation Yrotation
				JOINT head
				{
					OFFSET 0.000000 3.130431 0.000000 
					CHANNELS 3 Xrotation Zrotation Yrotation
					End Site
					{
						OFFSET 0.000000 3.130435 0.000000 
					}
				}
			}
			JOINT lCollar
			{
				OFFSET 3.470700 6.669187 -0.816635 
				CHANNELS 3 Yrotation Zrotation Xrotation
				JOINT lShldr
				{
					OFFSET 3.198488 0.000000 0.000000 
					CHANNELS 3 Zrotation Yrotation Xrotation
					JOINT lForeArm
					{
						OFFSET 10.139888 0.000000 0.000000 
						CHANNELS 3 Yrotation Zrotation Xrotation
						JOINT lHand
						{
							OFFSET 8.370511 0.000000 0.000000 
							CHANNELS 3 Zrotation Yrotation Xrotation
							End Site
							{
								OFFSET 4.083176 0.000000 0.000000 
							}
						}
					}
				}
			}
			JOINT rCollar
			{
				OFFSET -3.470700 6.669187 -0.816635 
				CHANNELS 3 Yrotation Zrotation Xrotation
				JOINT rShldr
				{
					OFFSET -3.198488 0.000000 0.000000 
					CHANNELS 3 Zrotation Yrotation Xrotation
					JOINT rForeArm
					{
						OFFSET -10.139888 0.000000 0.000000 
						CHANNELS 3 Yrotation Zrotation Xrotation
						JOINT rHand
						{
							OFFSET -8.370511 0.000000 0.000000 
							CHANNELS 3 Zrotation Yrotation Xrotation
							End Site
							{
								OFFSET -4.083176 0.000000 0.000000 
							}
						}
					}
				}
			}
		}
	}
	JOINT lThigh
	{
		OFFSET 5.308129 -1.633274 1.361059 
		CHANNELS 3 Xrotation Zrotation Yrotation
		JOINT lShin
		{
			OFFSET -2.041588 -20.007561 0.000000 
			CHANNELS 3 Xrotation Zrotation Yrotation
			JOINT lFoot
			{
				OFFSET 0.000000 -19.190928 -1.224953 
				CHANNELS 3 Xrotation Yrotation Zrotation
				End Site
				{
					OFFSET 0.000000 -2.449906 4.627600 
				}
			}
		}
	}
	JOINT rThigh
	{
		OFFSET -5.308129 -1.633274 1.361059 
		CHANNELS 3 Xrotation Zrotation Yrotation
		JOINT rShin
		{
			OFFSET 2.041588 -20.007561 0.000000 
			CHANNELS 3 Xrotation Zrotation Yrotation
			JOINT rFoot
			{
				OFFSET 0.000000 -19.190928 -1.224953 
				CHANNELS 3 Xrotation Yrotation Zrotation
				End Site
				{
					OFFSET 0.000000 -2.449906 4.627600 
				}
			}
		}
	}
}
MOTION
Frames: 8
Frame Time: 0.016667
0.503687 -60.424618 72.510834 72.080078 15.322266 42.072891 37.480469 -17.929688 -10.937499 -4.208984 -1.699219 -8.652633 2.119141 -7.187500 -0.753175 28.320313 -20.380859 13.173826 -3.652344 -6.328125 -0.341797 -19.892578 -53.886715 10.031176 -108.916016 4.990234 15.419072 9.121094 5.595703 19.042969 -22.734375 -11.806640 0.605469 -53.740231 61.845703 -45.001156 88.037109 -5.000000 -0.527344 -5.273438 -9.023438 20.419924 14.292002 27.719469 11.780772 47.008179 0.082024 0.274773 24.556112 4.856037 -10.734778 23.677050 8.259398 -4.750726 53.678844 3.854010 5.872048 25.968082 -0.327190 25.022606 
0.273344 -59.691566 72.995834 71.484375 15.361329 40.910789 37.714844 -17.578123 -10.898438 -3.632813 -0.966797 -8.349773 4.199219 -5.976563 -0.849609 30.087893 -19.277346 12.926464 -4.140625 -5.000000 -0.272586 -19.296875 -52.285156 7.666016 -106.484367 4.990234 13.202275 8.701172 5.117187 18.955078 -20.820314 -12.148438 0.595703 -52.539063 60.625000 -45.001255 87.783203 -5.000000 -0.594852 -2.275391 -11.171874 17.509766 16.664001 27.718842 11.566810 49.758602 0.384208 0.790153 23.347836 6.556098 -9.602810 23.836060 7.714005 -6.357713 54.870296 4.372938 6.996088 28.433969 0.902786 25.644829 
0.061939 -58.785400 73.441040 70.625000 15.410156 39.436192 37.919922 -17.158203 -10.745070 -2.958985 -0.214844 -7.910156 5.732421 -5.068359 -0.830078 31.328125 -18.173828 13.144530 -4.619141 -3.574219 -0.194704 -19.091797 -50.468750 5.458984 -103.222656 4.990234 10.321415 9.023438 4.003906 19.003904 -18.232422 -13.203124 0.666293 -49.150391 60.214844 -45.001286 88.027344 -5.000000 -0.546875 1.455078 -13.623047 16.113281 18.872467 27.457272 11.215080 53.327030 0.842480 1.633626 22.003777 8.635237 -8.170044 23.948351 7.067475 -7.455972 56.179012 4.850916 8.192193 31.023806 1.822922 26.196365 
-0.131588 -57.748077 73.849419 69.970703 15.322266 37.688126 37.841797 -16.796875 -10.400393 -2.353515 0.302734 -7.304636 6.347656 -5.117187 -0.869141 31.640623 -17.871094 13.955079 -4.931640 -2.832031 -0.146002 -18.339846 -49.062504 3.564454 -99.707031 4.990234 7.382812 9.892579 2.519531 18.740665 -15.302735 -14.521484 0.712891 -44.628906 59.921879 -45.009769 88.388672 -5.000000 -0.448368 4.951172 -16.152344 16.494139 20.618645 26.968088 11.554193 57.365032 1.300593 2.801900 21.567938 9.324130 -7.313949 23.747601 6.288052 -7.851741 56.781704 4.967945 8.573395 32.073425 2.292510 26.567436 
-0.298298 -56.514050 74.202637 69.648438 15.039063 35.527340 37.373047 -16.484373 -9.726562 -1.835938 0.498047 -6.455069 5.576172 -6.621094 -0.987454 30.527342 -18.730469 15.635536 -4.951172 -3.134766 -0.165482 -16.669922 -48.222656 2.070312 -95.732422 4.990234 4.248046 11.650392 0.498047 18.027454 -11.855469 -16.240234 0.783981 -38.339844 59.716793 -45.001335 88.916016 -5.000000 -0.301883 7.724609 -19.257813 19.658203 21.653765 26.099289 12.893557 62.036274 1.738819 4.429689 22.570141 8.033518 -7.331875 22.989758 5.348332 -7.302184 56.342495 4.546488 7.754763 30.823090 1.842713 26.662537 
-0.465004 -55.279984 74.555824 69.326164 14.755858 33.369137 36.923828 -16.191408 -9.084753 -1.328125 0.693359 -5.595585 4.814453 -8.125000 -1.083984 29.394531 -19.570314 17.350246 -4.970703 -3.437500 -0.175196 -15.058593 -47.353516 0.627583 -91.992188 4.990234 1.454229 13.437500 -1.484375 17.226563 -8.378905 -17.958984 0.950277 -32.187500 59.208984 -45.001377 89.453125 -5.000000 -0.136719 10.214844 -22.685547 22.691547 22.674431 25.214075 14.187846 66.735062 2.031523 6.119463 23.540840 6.771439 -7.320766 22.264776 4.384283 -6.743831 55.895073 4.106838 6.881602 29.541512 1.464975 26.671637 
-0.706361 -54.255146 74.824463 69.970703 15.107421 32.736919 36.855473 -17.089846 -9.436464 -1.025391 0.615234 -5.322266 2.998047 -8.740234 -0.830078 27.841797 -20.654295 18.974611 -4.658203 -2.812500 -0.146005 -14.550780 -47.294918 -0.153660 -89.638672 4.990234 -0.215693 14.785155 -2.558594 15.986327 -5.488281 -18.906250 0.969961 -25.371094 57.841797 -45.001495 90.361328 -5.000000 0.166016 10.078125 -23.222656 24.937553 22.467934 24.833227 14.355369 70.355392 1.405535 5.165780 25.937901 4.564110 -7.730540 21.260824 2.986248 -7.104856 53.752914 3.513027 5.443955 27.866962 2.617607 26.154974 
-0.947725 -53.230354 75.093071 70.615234 15.478517 32.092445 36.806644 -17.978516 -9.788171 -0.703125 0.537109 -5.048737 1.181641 -9.335938 -0.577756 26.250000 -21.699219 20.625002 -4.335938 -2.187500 -0.117188 -14.042967 -47.226563 -0.934903 -87.441406 4.990234 -1.650391 16.181641 -3.574219 14.707031 -2.558594 -19.853514 1.044922 -19.150391 56.113281 -45.001659 91.289063 -5.000000 0.489132 9.921875 -23.779299 27.183561 22.284147 24.472857 14.553065 73.957779 0.854861 4.116939 28.380163 2.280616 -8.100165 20.290936 1.620620 -7.450083 51.623104 2.886005 3.991559 26.184422 3.737069 25.664419 
